<svg id="_1200" data-name="1200" xmlns="http://www.w3.org/2000/svg" viewBox="0 0 483.28 286.85"><defs><style>.cls-1{fill:#e32c14;}</style></defs><title>T3_LogoZeichenfläche 2</title><path class="cls-1" d="M76.9,96.41V216.19l-16-3V99l-14.23,2.3V79.52l47.36-11V93.64Z"/><path class="cls-1" d="M153.33,230.45l-52.44-9.79V67l51.18-11.83V81.55l-30.84,5.18v42l28.33-1.7v26.22l-28.33-.08V200l32.1,4Z"/><path class="cls-1" d="M165.82,52l28.44-6.57V238.08l-28.44-5.3Z"/><path class="cls-1" d="M253.55,31.71V211.78l47,4.36v41.21l-83-14.91V40Z"/><path class="cls-1" d="M314.63,18.51V261l121.93-30.57V55.17Zm110.6,170.84a46.66,46.66,0,0,1-6.16,15.88,48.25,48.25,0,0,1-13.46,14c-6.1,4.35-14.5,7.89-25.55,10.61-16.75,4.13-30.43,2.46-40.1-5.65-10.22-8.56-15.55-22.94-15.55-42.79v-.87l39.33-3.2q.25,16.06,4.17,23.87c2.56,5.12,7.6,7,14.91,5.68A19.81,19.81,0,0,0,392,203.1a17.94,17.94,0,0,0,5.09-6.6,28.39,28.39,0,0,0,2.27-8.83,99.88,99.88,0,0,0,.51-10.27,74.53,74.53,0,0,0-.71-10.51,27.45,27.45,0,0,0-2.8-8.88,16.07,16.07,0,0,0-6-6.29c-2.63-1.59-6.21-2.39-10.8-2.4H368V125.25l11.33.81a14.79,14.79,0,0,0,8.73-1.67,15,15,0,0,0,5.42-5.49,26.21,26.21,0,0,0,3-8,47.72,47.72,0,0,0,.94-9.7c0-8-1.19-13.8-3.58-17.59s-6.22-6.38-11.47-7.57c-3.55-.8-6.49-.76-8.81.15A10.74,10.74,0,0,0,368,81.08,24,24,0,0,0,365.4,90a98.46,98.46,0,0,0-.64,11.78l-37.2-5.18c0-20.26,5.44-34,15.87-41,9.86-6.62,23.35-7.2,39.62-2.36,14.08,4.18,24.19,10.51,31,19,6.49,8.06,9.63,18.66,9.63,32.07,0,9.13-1.66,16.42-5.05,22a22.17,22.17,0,0,1-15.1,10.58v.46c8.93,2,14.92,6.24,18.31,12.69s4.94,14.14,4.94,23.6A86.47,86.47,0,0,1,425.23,189.35Z"/></svg>