<?xml version="1.0" encoding="UTF-8" standalone="no"?>
<svg
   id="_1200"
   data-name="1200"
   viewBox="0 0 800 799.99998"
   version="1.1"
   sodipodi:docname="teil3_logo_schmuck.svg"
   inkscape:version="1.1.2 (0a00cf5339, 2022-02-04)"
   inkscape:export-filename="/home/litwan/Documents/teil3/graphic/teil3_logo-schmuckgross.png"
   inkscape:export-xdpi="150.08812"
   inkscape:export-ydpi="150.08812"
   width="800"
   height="800"
   xmlns:inkscape="http://www.inkscape.org/namespaces/inkscape"
   xmlns:sodipodi="http://sodipodi.sourceforge.net/DTD/sodipodi-0.dtd"
   xmlns="http://www.w3.org/2000/svg"
   xmlns:svg="http://www.w3.org/2000/svg"
   xmlns:rdf="http://www.w3.org/1999/02/22-rdf-syntax-ns#"
   xmlns:cc="http://creativecommons.org/ns#"
   xmlns:dc="http://purl.org/dc/elements/1.1/">
  <sodipodi:namedview
     id="namedview19"
     pagecolor="#000000"
     bordercolor="#666666"
     borderopacity="1.0"
     inkscape:pageshadow="2"
     inkscape:pageopacity="0"
     inkscape:pagecheckerboard="0"
     showgrid="false"
     inkscape:zoom="0.32464702"
     inkscape:cx="348.07034"
     inkscape:cy="717.70256"
     inkscape:window-width="1850"
     inkscape:window-height="1130"
     inkscape:window-x="70"
     inkscape:window-y="33"
     inkscape:window-maximized="1"
     inkscape:current-layer="_1200" />
  <defs
     id="defs4">
    <style
       id="style2">.cls-1{fill:#e32c14;}</style>
  </defs>
  <title
     id="title6">T3_LogoZeichenfläche 2</title>
  <g
     id="g1187"
     transform="translate(7.442535,166.36714)">
    <path
       class="cls-1"
       d="M 100.30655,156.72659 V 369.25013 L 71.918037,363.92728 V 161.32198 L 46.67,165.40283 v -38.64387 l 84.03001,-19.5171 v 44.56997 z"
       id="path8"
       style="fill:#f2f2f2;stroke-width:1.77428"
       inkscape:export-filename="/home/litwan/Documents/teil3/graphic/teil3_logo-schmuckgross.png"
       inkscape:export-xdpi="23.91267"
       inkscape:export-ydpi="23.91267" />
    <path
       class="cls-1"
       d="M 235.91495,394.55139 142.87159,377.18117 V 104.54495 l 90.80776,-20.989761 v 46.805571 l -54.71886,9.19078 v 74.51986 l 50.26542,-3.01628 v 46.52168 l -50.26542,-0.14195 v 83.08965 l 56.95446,7.09712 z"
       id="path10"
       style="fill:#f2f2f2;stroke-width:1.77428"
       inkscape:export-filename="/home/litwan/Documents/teil3/graphic/teil3_logo-schmuckgross.png"
       inkscape:export-xdpi="23.91267"
       inkscape:export-ydpi="23.91267" />
    <path
       class="cls-1"
       d="M 258.07574,77.930714 308.53633,66.27368 v 341.81549 l -50.46059,-9.4037 z"
       id="path12"
       style="fill:#f2f2f2;stroke-width:1.77428"
       inkscape:export-filename="/home/litwan/Documents/teil3/graphic/teil3_logo-schmuckgross.png"
       inkscape:export-xdpi="23.91267"
       inkscape:export-ydpi="23.91267" />
    <path
       class="cls-1"
       d="M 413.73352,41.930526 V 361.42554 l 83.39127,7.73587 v 73.11818 L 349.85936,415.82504 V 56.639327 Z"
       id="path14"
       style="fill:#f2f2f2;stroke-width:1.77428"
       inkscape:export-filename="/home/litwan/Documents/teil3/graphic/teil3_logo-schmuckgross.png"
       inkscape:export-xdpi="23.91267"
       inkscape:export-ydpi="23.91267" />
    <path
       class="cls-1"
       d="M 522.10669,18.51 V 448.75572 L 738.44493,394.51591 V 83.555189 Z m 196.23562,303.11839 a 82.788012,82.788012 0 0 1 -10.92958,28.1756 85.609121,85.609121 0 0 1 -23.88184,24.83995 c -10.82312,7.71813 -25.72709,13.99909 -45.33291,18.82514 -29.71923,7.32779 -53.99141,4.36473 -71.14872,-10.0247 -18.13317,-15.18785 -27.59009,-40.70203 -27.59009,-75.92154 v -1.54362 l 69.78252,-5.6777 q 0.44357,28.49497 7.39876,42.35211 c 4.54216,9.08433 13.48454,12.41998 26.45455,10.07793 a 35.148532,35.148532 0 0 0 16.28791,-6.70679 31.830625,31.830625 0 0 0 9.03109,-11.71026 50.371875,50.371875 0 0 0 4.02763,-15.66692 177.21532,177.21532 0 0 0 0.90488,-18.22187 132.23726,132.23726 0 0 0 -1.25974,-18.64771 48.704049,48.704049 0 0 0 -4.96799,-15.75563 28.512717,28.512717 0 0 0 -10.6457,-11.16023 c -4.66636,-2.82111 -11.01829,-4.24054 -19.16224,-4.25828 h -20.51071 v -42.70698 l 20.10262,1.43717 a 26.241635,26.241635 0 0 0 15.48949,-2.96305 26.614235,26.614235 0 0 0 9.61661,-9.74081 46.503939,46.503939 0 0 0 5.32284,-14.19426 84.668752,84.668752 0 0 0 1.66783,-17.21054 c 0,-14.19425 -2.1114,-24.48509 -6.35193,-31.20962 -4.24054,-6.72453 -11.03604,-11.31992 -20.35102,-13.43132 -6.2987,-1.41942 -11.51509,-1.34845 -15.63143,0.26614 a 19.055792,19.055792 0 0 0 -9.86501,8.67624 42.582775,42.582775 0 0 0 -4.61313,15.8266 174.69584,174.69584 0 0 0 -1.13554,20.90105 l -66.0033,-9.19078 c 0,-35.94696 9.65209,-60.325603 28.15786,-72.745579 17.49442,-11.745749 41.42949,-12.774833 70.29706,-4.187307 24.9819,7.4165 42.91989,18.647707 55.00275,33.711366 11.51509,14.30071 17.08634,33.10811 17.08634,56.90123 0,16.1992 -2.94531,29.13372 -8.96012,39.03421 a 39.335839,39.335839 0 0 1 -26.79167,18.77191 v 0.81617 c 15.84434,3.54856 26.47229,11.07152 32.48711,22.51564 6.01482,11.44412 8.76496,25.08835 8.76496,41.87306 a 153.42219,153.42219 0 0 1 -2.75014,27.87398 z"
       id="path16"
       style="fill:#f2f2f2;stroke-width:1.77428"
       inkscape:export-filename="/home/litwan/Documents/teil3/graphic/teil3_logo-schmuckgross.png"
       inkscape:export-xdpi="23.91267"
       inkscape:export-ydpi="23.91267" />
  </g>
  <metadata
     id="metadata836">
    <rdf:RDF>
      <cc:Work
         rdf:about="">
        <dc:title>T3_LogoZeichenfläche 2</dc:title>
      </cc:Work>
    </rdf:RDF>
  </metadata>
</svg>
